<svg width="current" height="current" viewBox="0 0 16 17" fill="current" xmlns="http://www.w3.org/2000/svg">
<path fill-rule="evenodd" clip-rule="evenodd" d="M9.04167 11.6241C9.60603 10.7335 10.5586 9.85477 11.5636 9.28731C11.6295 9.25009 11.6956 9.21421 11.7619 9.17976C12.018 9.04663 12.276 8.93474 12.5305 8.84898C12.5983 8.82612 12.6659 8.80512 12.7331 8.78607C12.8872 8.74241 13 8.60563 13 8.44553C13 8.28676 12.889 8.15061 12.736 8.10816C12.6648 8.0884 12.5937 8.06696 12.5228 8.04386C12.2634 7.95937 12.0061 7.85265 11.7515 7.72433C11.6851 7.69082 11.6188 7.65584 11.5527 7.6194C11.334 7.49881 11.1175 7.36221 10.9036 7.21002C10.0386 6.59799 9.31684 5.79674 8.84401 4.9601C8.79952 4.88137 8.75722 4.80232 8.71722 4.72308C8.57963 4.45052 8.46916 4.17577 8.38943 3.90405C8.37238 3.84597 8.35674 3.78803 8.34254 3.73027C8.30447 3.57545 8.16971 3.46002 8.01028 3.46002C7.85328 3.46002 7.71977 3.57211 7.68115 3.72429C7.6658 3.78475 7.64913 3.84504 7.63114 3.9052C7.54909 4.17959 7.43953 4.45112 7.30246 4.72236C7.26245 4.80153 7.2201 4.88068 7.1754 4.95987C7.07565 5.13658 6.96423 5.31348 6.84115 5.49127C6.22697 6.38226 5.38292 7.11808 4.45407 7.61475C4.38538 7.65148 4.31623 7.6869 4.24667 7.72098C3.99441 7.84456 3.73683 7.95051 3.47672 8.03718C3.40486 8.06112 3.33281 8.0836 3.26062 8.10457C3.10878 8.14867 3 8.2851 3 8.44321C3 8.60478 3.11357 8.74297 3.26927 8.7861C3.33838 8.80524 3.40757 8.82616 3.47682 8.84885C3.73156 8.93231 3.98716 9.03971 4.2426 9.17052C4.30908 9.20456 4.37554 9.24018 4.44197 9.27739C4.70871 9.42676 4.97497 9.60155 5.23958 9.80117C6.12238 10.4633 6.76053 11.2188 7.17744 11.9559C7.22274 12.036 7.26542 12.1158 7.30552 12.1954C7.44717 12.4762 7.55662 12.7525 7.63517 13.018C7.65273 13.0774 7.66874 13.1362 7.68323 13.1944C7.7212 13.3469 7.85429 13.46 8.01145 13.46C8.17 13.46 8.30379 13.3447 8.34143 13.1907C8.35529 13.134 8.37068 13.0768 8.38761 13.019C8.46503 12.7552 8.57474 12.4808 8.71791 12.1959C8.75789 12.1164 8.80047 12.036 8.84568 11.9548C8.90626 11.8461 8.97157 11.7358 9.04167 11.6241ZM8.00686 10.4787C8.53979 9.74106 9.2644 9.03177 10.0728 8.45962C10.0604 8.4509 10.048 8.44215 10.0356 8.43336C9.26207 7.88576 8.56403 7.19787 8.01163 6.43477C7.4489 7.22661 6.7394 7.91472 5.94655 8.45954C6.01184 8.50614 6.07675 8.55378 6.14126 8.60243C6.89936 9.17125 7.52162 9.8116 8.00686 10.4787Z" fill="current"/>
</svg>
